<?xml version="1.0" encoding="UTF-8"?>
<svg width="84px" height="92px" viewBox="0 0 84 92" version="1.1" xmlns="http://www.w3.org/2000/svg" xmlns:xlink="http://www.w3.org/1999/xlink">
    <!-- Generator: Sketch 61 (89581) - https://sketch.com -->
    <title>Character</title>
    <desc>Created with Sketch.</desc>
    <defs>
        <polygon id="path-1" points="0 0.103900498 83.9606935 0.103900498 83.9606935 92 0 92"></polygon>
    </defs>
    <g id="Character" stroke="none" stroke-width="1" fill="none" fill-rule="evenodd">
        <g>
            <g id="Group-3">
                <mask id="mask-2" fill="white">
                    <use xlink:href="#path-1"></use>
                </mask>
                <g id="Clip-2"></g>
                <path d="M81.2978022,0.103900498 L2.66284565,0.103900498 C1.19193261,0.103900498 -4.56521739e-05,1.29898507 -4.56521739e-05,2.77373134 L-4.56521739e-05,70.4216517 L-4.56521739e-05,78.6801393 L-4.56521739e-05,79.351602 C-4.56521739e-05,80.4766567 0.909802174,81.3879602 2.03101957,81.3879602 L17.5961283,81.3879602 L21.2158891,85.0171542 C21.2346065,85.0377512 21.2254761,85.0688756 21.245563,85.0890149 L27.543737,91.403602 C27.9463891,91.8073035 28.4736717,91.996796 29.0009543,91.9908458 C29.5286935,91.996796 30.0555196,91.8073035 30.4581717,91.403602 L35.4283239,86.4200398 L40.3984761,91.403602 C41.1909978,92.1991045 42.4774761,92.1991045 43.2704543,91.403602 L48.262063,86.3989851 L53.2527587,91.403602 C54.0461935,92.1991045 55.3322152,92.1991045 56.1251935,91.403602 L66.1143457,81.3879602 L81.9296283,81.3879602 C83.0508457,81.3879602 83.9606935,80.4766567 83.9606935,79.351602 L83.9606935,78.6801393 L83.9606935,70.4216517 L83.9606935,2.77373134 C83.9606935,1.29898507 82.7687152,0.103900498 81.2978022,0.103900498" id="Fill-1" fill="#FBBE65" mask="url(#mask-2)"></path>
            </g>
            <path d="M20.8418501,67.9830551 C21.4879093,67.9830551 21.9986082,68.3213774 22.3730289,68.7871966 C22.5574861,68.8814532 22.7786513,68.8641501 22.9332834,69.0171464 L27.9544669,74 L32.9751916,69.0171464 C33.7731298,68.22621 35.0652483,68.22621 35.8627277,69.0171464 L40.8797816,73.9954465 L45.8959178,69.0171464 C46.6929383,68.22621 47.9855157,68.22621 48.7829951,69.0171464 L53.7991312,73.9959019 L58.8161851,69.0171464 C59.0538689,68.7808217 59.3787339,68.7575991 59.6788211,68.662887 C60.0518652,68.2567182 60.5602698,67.9830551 61.1576911,67.9830551 L71,67.9830551 L71,13 L11,13 L11,67.9830551 L20.8418501,67.9830551 Z" id="Fill-4" fill="#F7DDBA"></path>
            <path d="M33,12 C33,16.4181706 29.4178237,20 25.0002235,20 C20.5817293,20 17,16.4181706 17,12 C17,7.58138235 20.5817293,4 25.0002235,4 C29.4178237,4 33,7.58138235 33,12" id="Fill-6" fill="#FEFEFE"></path>
            <path d="M66,12 C66,16.4186176 62.4181706,20 58.000447,20 C53.5818294,20 50,16.4186176 50,12 C50,7.58182936 53.5818294,4 58.000447,4 C62.4181706,4 66,7.58182936 66,12" id="Fill-8" fill="#FEFEFE"></path>
            <path d="M42,25 C40.3549484,25 38.7098969,24.4489936 37.4573739,23.3465881 C36.8476164,22.8097202 36.8476164,21.9394207 37.4569278,21.4025528 C38.0671313,20.8656848 39.0551436,20.8660776 39.6653471,21.40216 C40.9526624,22.5359843 43.0473376,22.5359843 44.3346529,21.40216 C44.9448564,20.8660776 45.9328687,20.8656848 46.5430722,21.4025528 C47.1523836,21.9394207 47.1523836,22.8097202 46.5426261,23.3465881 C45.2901031,24.4489936 43.6450516,25 42,25" id="Fill-10" fill="#010202"></path>
            <path d="M34,12.5 C34,17.194365 30.194365,21 25.5,21 C20.805635,21 17,17.194365 17,12.5 C17,7.80563504 20.805635,4 25.5,4 C30.194365,4 34,7.80563504 34,12.5" id="Fill-12" fill="#FEFEFE"></path>
            <path d="M67,12.5 C67,17.194365 63.194365,21 58.5,21 C53.805635,21 50,17.194365 50,12.5 C50,7.80563504 53.805635,4 58.5,4 C63.194365,4 67,7.80563504 67,12.5" id="Fill-16" fill="#FEFEFE"></path>
            <path d="M59.2408198,4 C59.0785653,4 58.9205807,4.01451798 58.7608881,4.02433897 C56.0106746,4.82923304 54,7.36646412 54,10.3772376 C54,14.0349154 56.9649872,17 60.6225448,17 C63.6336465,17 66.1703672,14.9896863 66.9756618,12.2389555 C66.9854825,12.0796847 67,11.9212679 67,11.759435 C67,7.47406799 63.5260461,4 59.2408198,4" id="Fill-18" fill="#010202"></path>
            <path d="M26.2408198,4 C26.0785653,4 25.9205807,4.01451798 25.7608881,4.02433897 C23.0106746,4.82923304 21,7.36646412 21,10.3772376 C21,14.0349154 23.9649872,17 27.6225448,17 C30.6336465,17 33.1703672,14.9896863 33.9756618,12.2389555 C33.9854825,12.0796847 34,11.9212679 34,11.759435 C34,7.47406799 30.5260461,4 26.2408198,4" id="Fill-18-Copy" fill="#010202"></path>
        </g>
    </g>
</svg>