<?xml version="1.0" encoding="UTF-8"?>
<svg width="23px" height="36px" viewBox="0 0 23 36" version="1.1" xmlns="http://www.w3.org/2000/svg" xmlns:xlink="http://www.w3.org/1999/xlink">
    <!-- Generator: Sketch 61 (89581) - https://sketch.com -->
    <title>Combined Shape</title>
    <desc>Created with Sketch.</desc>
    <g id="Symbols" stroke="none" stroke-width="1" fill="none" fill-rule="evenodd">
        <g id="Tab-Steps-Copy" transform="translate(-31.000000, -422.000000)" fill="#F04D3A">
            <g id="Tab-Steps">
                <path d="M37.0321337,422.439593 L50.0873649,435.47243 L50.0873649,435.47243 L53.5593204,438.93843 C54.1456095,439.523713 54.1464248,440.47346 53.5611414,441.059749 L53.5593204,441.06157 L37.0321337,457.560407 C36.4465562,458.14498 35.4982125,458.14498 34.9126351,457.560407 L31.4406796,454.094407 C30.8543905,453.509124 30.8535752,452.559377 31.4388586,451.973088 L31.4406796,451.971267 L43.432,440 L31.4406796,428.028733 C30.8543905,427.44345 30.8535752,426.493703 31.4388586,425.907414 L31.4406796,425.905593 L34.9126351,422.439593 C35.4982125,421.85502 36.4465562,421.85502 37.0321337,422.439593 Z" id="Combined-Shape" transform="translate(42.500000, 440.000000) scale(-1, 1) translate(-42.500000, -440.000000) "></path>
            </g>
        </g>
    </g>
</svg>