<?xml version="1.0" encoding="UTF-8"?>
<svg width="24px" height="37px" viewBox="0 0 24 37" version="1.1" xmlns="http://www.w3.org/2000/svg" xmlns:xlink="http://www.w3.org/1999/xlink">
    <!-- Generator: Sketch 60 (88103) - https://sketch.com -->
    <title>arrow_left</title>
    <desc>Created with Sketch.</desc>
    <g id="arrow_left" stroke="none" stroke-width="1" fill="none" fill-rule="evenodd">
        <path d="M6.03948506,0.438168496 L19.114705,13.4845253 L19.114705,13.4845253 L22.5947025,16.9568409 C23.1811359,17.5419797 23.1821853,18.4917266 22.5970465,19.0781599 C22.596266,19.0789421 22.5954847,19.0797234 22.5947025,19.0805039 L6.03948506,35.5991762 C5.45396789,36.1834009 4.50602714,36.1834009 3.92050997,35.5991762 L0.440512461,32.1268607 C-0.145920885,31.5417219 -0.146970312,30.591975 0.438168502,30.0055416 L0.440512461,30.0031977 L12.451,18.018 L0.440512461,6.03414703 C-0.145920885,5.44900821 -0.146970312,4.49926132 0.438168502,3.91282798 L0.440512461,3.91048402 L3.92050997,0.438168496 C4.50602714,-0.146056165 5.45396789,-0.146056165 6.03948506,0.438168496 Z" id="Combined-Shape-Copy" fill="#2C3F99" transform="translate(11.517607, 18.018672) rotate(180.000000) translate(-11.517607, -18.018672) "></path>
    </g>
</svg>