<?xml version="1.0" encoding="UTF-8"?>
<svg width="21px" height="30px" viewBox="0 0 21 30" version="1.1" xmlns="http://www.w3.org/2000/svg" xmlns:xlink="http://www.w3.org/1999/xlink">
    <!-- Generator: Sketch 60 (88103) - https://sketch.com -->
    <title>bluebird_notconnected</title>
    <desc>Created with Sketch.</desc>
    <g id="bluebird_notconnected" stroke="none" stroke-width="1" fill="none" fill-rule="evenodd">
        <path d="M11.6887508,0.653200014 C11.8487147,0.771429356 11.9901461,0.912860768 12.1083754,1.07282462 C16.0568763,6.41513139 18.6870942,10.8685888 19.9990291,14.4331968 C20.6411387,15.8452281 21,17.4231713 21,19.0882182 C21,25.1146289 16.2989899,30 10.5,30 C4.70101013,30 0,25.1146289 0,19.0882182 C0,17.4231713 0.358861325,15.8452281 1.00059141,14.4333612 C2.27438141,10.973262 4.78979002,6.67591262 8.54719673,1.54114882 L8.89162429,1.07282462 C9.54815332,0.184543322 10.8004695,-0.00332901533 11.6887508,0.653200014 Z M3.05835921,20.7470656 C2.27011948,20.7470656 1.63112491,21.39728 1.63112491,22.1993602 C1.63112491,23.0014403 2.27011948,23.6516547 3.05835921,23.6516547 C3.84659895,23.6516547 4.48559351,23.0014403 4.48559351,22.1993602 C4.48559351,21.39728 3.84659895,20.7470656 3.05835921,20.7470656 Z M17.7384834,20.7470656 C16.9502437,20.7470656 16.3112491,21.39728 16.3112491,22.1993602 C16.3112491,23.0014403 16.9502437,23.6516547 17.7384834,23.6516547 C18.5267232,23.6516547 19.1657177,23.0014403 19.1657177,22.1993602 C19.1657177,21.39728 18.5267232,20.7470656 17.7384834,20.7470656 Z M4.68948413,11.6183567 C3.90124439,11.6183567 3.26224983,12.2685712 3.26224983,13.0706513 C3.26224983,13.8727315 3.90124439,14.5229459 4.68948413,14.5229459 C5.47772387,14.5229459 6.11671843,13.8727315 6.11671843,13.0706513 C6.11671843,12.2685712 5.47772387,11.6183567 4.68948413,11.6183567 Z M16.1073585,11.6183567 C15.3191188,11.6183567 14.6801242,12.2685712 14.6801242,13.0706513 C14.6801242,13.8727315 15.3191188,14.5229459 16.1073585,14.5229459 C16.8955983,14.5229459 17.5345928,13.8727315 17.5345928,13.0706513 C17.5345928,12.2685712 16.8955983,11.6183567 16.1073585,11.6183567 Z" id="Humidity--Copy" fill="#F04D3A"></path>
    </g>
</svg>