<?xml version="1.0" encoding="UTF-8"?>
<svg width="20px" height="20px" viewBox="0 0 20 20" version="1.1" xmlns="http://www.w3.org/2000/svg" xmlns:xlink="http://www.w3.org/1999/xlink">
    <!-- Generator: Sketch 60 (88103) - https://sketch.com -->
    <title>Close</title>
    <desc>Created with Sketch.</desc>
    <g id="Close" stroke="none" stroke-width="1" fill="none" fill-rule="evenodd">
        <path d="M10,6.57011732 L15.7452031,0.645774511 C16.5801999,-0.21525817 17.9339973,-0.21525817 18.7689941,0.645774511 C19.603991,1.50680719 19.603991,2.90281699 18.7689941,3.76384967 L13.0237911,9.68819248 L19.3737524,16.2361503 C20.2087492,17.097183 20.2087492,18.4931928 19.3737524,19.3542255 C18.5387555,20.2152582 17.1849581,20.2152582 16.3499613,19.3542255 L10,12.8062676 L3.65003872,19.3542255 C2.81504187,20.2152582 1.46124449,20.2152582 0.626247638,19.3542255 C-0.208749213,18.4931928 -0.208749213,17.097183 0.626247638,16.2361503 L6.97620892,9.68819248 L1.23100586,3.76384967 C0.396009004,2.90281699 0.396009004,1.50680719 1.23100586,0.645774511 C2.06600271,-0.21525817 3.41980009,-0.21525817 4.25479694,0.645774511 L10,6.57011732 Z" id="Exit-Window" fill="#6C6B6B"></path>
    </g>
</svg>