<?xml version="1.0" encoding="UTF-8"?>
<svg width="26px" height="22px" viewBox="0 0 26 22" version="1.1" xmlns="http://www.w3.org/2000/svg" xmlns:xlink="http://www.w3.org/1999/xlink">
    <!-- Generator: Sketch 61 (89581) - https://sketch.com -->
    <title>Accelerometer Icon</title>
    <desc>Created with Sketch.</desc>
    <g id="Symbols" stroke="none" stroke-width="1" fill="none" fill-rule="evenodd">
        <g id="V1_UI_PreviewFile" transform="translate(-30.000000, -94.000000)" fill="#6C6B6B">
            <g id="Group-9" transform="translate(30.000000, 92.000000)">
                <path d="M11.9319528,2.29013854 C12.0673187,2.37286214 12.181061,2.48660447 12.2637847,2.62197036 L15.1219273,7.29893104 C15.4099162,7.77018558 15.26135,8.38567399 14.7900955,8.67366288 C14.6330875,8.76961216 14.4526502,8.82038105 14.2686455,8.82038105 L13.5192726,8.82 L13.5192726,15.081 L19.1412726,16.562 L19.4578071,15.4021574 C19.603053,14.869314 20.1527529,14.5551041 20.6855963,14.70035 C20.8683535,14.7501671 21.0332025,14.8508676 21.1609544,14.9907295 L24.794413,18.9686143 C25.1668842,19.3763932 25.1382617,20.0089109 24.7304828,20.3813822 C24.6243311,20.4783427 24.4985203,20.5512743 24.3616275,20.5952049 L19.1915963,22.254331 C18.6657264,22.4230891 18.1026192,22.1335928 17.9338611,21.6077229 C17.8747163,21.4234207 17.87033,21.2259146 17.9212345,21.0391684 L18.2782726,19.725 L11.6232726,17.972 L6.7842726,21.302 L7.44659236,22.2328953 C7.76701723,22.6827245 7.66211427,23.3071389 7.21228503,23.6275637 C7.05203717,23.7417124 6.86167747,23.806054 6.66503743,23.8125334 L1.2309192,23.9915922 C0.67893403,24.0097805 0.216717047,23.5770527 0.198528675,23.0250676 C0.193884475,22.8841243 0.219102831,22.7437924 0.272528196,22.6132845 L2.30227824,17.6549952 C2.51151138,17.1438788 3.09547004,16.8991541 3.6065864,17.1083872 C3.78151211,17.1799957 3.93256118,17.2997141 4.04222417,17.4536647 L4.8732726,18.621 L10.1442726,14.993 L10.1442726,8.82 L8.55236018,8.82038105 C8.00007543,8.82038105 7.55236018,8.3726658 7.55236018,7.82038105 C7.55236018,7.6363763 7.60312907,7.45593895 7.69907835,7.29893104 L10.557221,2.62197036 C10.8452099,2.15071582 11.4606983,2.00214965 11.9319528,2.29013854 Z" id="Accelerometer-Icon"></path>
            </g>
        </g>
    </g>
</svg>