<?xml version="1.0" encoding="UTF-8"?>
<svg width="21px" height="22px" viewBox="0 0 21 22" version="1.1" xmlns="http://www.w3.org/2000/svg" xmlns:xlink="http://www.w3.org/1999/xlink">
    <!-- Generator: Sketch 61 (89581) - https://sketch.com -->
    <title>controlCenter_music</title>
    <desc>Created with Sketch.</desc>
    <g id="Symbols" stroke="none" stroke-width="1" fill="none" fill-rule="evenodd">
        <g id="V1_UI_ControlCenter_Active-Copy" transform="translate(-720.000000, -589.000000)" fill="#6C6B6B">
            <g id="controlCenter_music" transform="translate(720.000000, 589.000000)">
                <path d="M20.0455428,16.76 C19.9055781,18.8087953 18.2337173,20.4285714 16.1906307,20.4285714 C14.0616216,20.4285714 12.3357187,18.6696901 12.3357187,16.5 C12.3357187,14.3303099 14.0616216,12.5714286 16.1906307,12.5714286 C16.4820175,12.5714286 16.7658533,12.604376 17.0387468,12.6668146 L17.038,3.928 L7.717,3.928 L7.71753399,18.0619704 L7.709,18.061 L7.70982417,18.0714286 C7.70982417,20.1733158 6.09010472,21.8896687 4.05328535,21.9948882 L3.85491208,22 C1.72590293,22 -4.35207426e-14,20.2411187 -4.35207426e-14,18.0714286 C-4.35207426e-14,15.9017385 1.72590293,14.1428571 3.85491208,14.1428571 C4.14914513,14.1428571 4.43567895,14.1764513 4.71102186,14.2400814 L4.71070257,1.86 L4.716,1.86 L4.7161883,1.85073766 C4.79253744,0.815877791 5.65634077,1.9368312e-16 6.71070257,0 L18.0455428,0 C19.1501123,-1.18396092e-15 20.0455428,0.8954305 20.0455428,2 L20.0455428,16.76 Z" id="audio-copy"></path>
            </g>
        </g>
    </g>
</svg>