<?xml version="1.0" encoding="UTF-8"?>
<svg width="10px" height="22px" viewBox="0 0 10 22" version="1.1" xmlns="http://www.w3.org/2000/svg" xmlns:xlink="http://www.w3.org/1999/xlink">
    <!-- Generator: Sketch 61 (89581) - https://sketch.com -->
    <title>Temperature Icon</title>
    <desc>Created with Sketch.</desc>
    <g id="Symbols" stroke="none" stroke-width="1" fill="none" fill-rule="evenodd">
        <g id="V1_UI_ControlCenter_Active-Copy" transform="translate(-720.000000, -552.000000)" fill="#6C6B6B">
            <path d="M724.85498,552 C726.530812,552 727.889343,553.35853 727.889343,555.034363 L727.89025,565.530492 C728.999654,566.402257 729.70996,567.741478 729.70996,569.243243 C729.70996,570.529832 729.188621,571.697118 728.341629,572.553375 C727.459149,573.445508 726.223156,574 724.85498,574 C722.173649,574 720,571.870327 720,569.243243 C720,567.741478 720.710306,566.402257 721.81971,565.530492 L721.820618,555.034363 C721.820618,553.35853 723.179148,552 724.85498,552 Z M724.85498,556.756757 C724.184647,556.756757 723.641235,557.300169 723.641235,557.970502 L723.641235,557.970502 L723.641426,566.517566 C722.569645,566.976286 721.820618,568.024062 721.820618,569.243243 C721.820618,570.885171 723.179148,572.216216 724.85498,572.216216 C726.530812,572.216216 727.889343,570.885171 727.889343,569.243243 C727.889343,568.024062 727.140315,566.976286 726.068534,566.517566 L726.068725,557.970502 C726.068725,557.300169 725.525313,556.756757 724.85498,556.756757 Z" id="Temperature-Icon"></path>
        </g>
    </g>
</svg>