<?xml version="1.0" encoding="UTF-8"?>
<svg width="26px" height="24px" viewBox="0 0 26 24" version="1.1" xmlns="http://www.w3.org/2000/svg" xmlns:xlink="http://www.w3.org/1999/xlink">
    <!-- Generator: Sketch 61 (89581) - https://sketch.com -->
    <title>controlCenter_GPIO</title>
    <desc>Created with Sketch.</desc>
    <g id="Symbols" stroke="none" stroke-width="1" fill="none" fill-rule="evenodd">
        <g id="V1_UI_ControlCenter_Active-Copy" transform="translate(-728.000000, -635.000000)">
            <g id="i/o-4-label" transform="translate(729.000000, 636.000000)">
                <g id="controlCenter_GPIO" transform="translate(0.000000, 0.000000)">
                    <g id="I/O-Symbol" transform="translate(0.000000, 0.000000)">
                        <path d="M14.7058185,12.091296 C14.7373781,12.1753206 14.7538085,12.2679728 14.7538085,12.3619152 L14.7529097,13.3602724 L22.7309419,13.3611402 C23.2466247,13.3611402 23.6646682,13.8063416 23.6646682,14.3555253 C23.6646682,14.9047091 23.2466247,15.3499105 22.7309419,15.3499105 L14.7529097,15.3492724 L14.7538085,16.4549245 C14.7538085,16.7891246 14.5502917,17.0600473 14.299241,17.0600473 C14.2286716,17.0600473 14.1590713,17.0381751 14.0959522,16.9961628 L11.021288,14.9496581 C10.7967414,14.8001993 10.7057259,14.4367183 10.8179992,14.1378007 C10.8619849,14.0206929 10.9333167,13.9257355 11.021288,13.8671816 L14.0959522,11.8206769 C14.3204988,11.6712181 14.5935452,11.7923784 14.7058185,12.091296 Z M20.5202412,6.45327239 C20.5908106,6.45327239 20.6604108,6.47514461 20.72353,6.5171569 L23.7981941,8.56366157 C24.0227407,8.71312039 24.1137562,9.07660133 24.0014829,9.37551897 C23.9574973,9.49262681 23.8861654,9.58758418 23.7981941,9.6461381 L20.72353,11.6926428 C20.4989834,11.8421016 20.2259369,11.7209413 20.1136636,11.4220236 C20.082104,11.337999 20.0656736,11.2453468 20.0656736,11.1514045 L20.0649097,10.0462724 L12.646698,10.046523 C12.1310152,10.046523 11.7129717,9.60132164 11.7129717,9.05213789 C11.7129717,8.50295414 12.1310152,8.05775274 12.646698,8.05775274 L20.0649097,8.05727239 L20.0656736,7.05839517 C20.0656736,6.72419509 20.2691905,6.45327239 20.5202412,6.45327239 Z" id="Combined-Shape" fill="#6C6B6B" fill-rule="nonzero"></path>
                        <path d="M19.7336365,4.2649619 C17.7389276,2.05492303 14.808005,0.659343225 11.5407337,0.659343225 C5.53038363,0.659600913 0.657830226,5.38333784 0.657581021,11.210105 C0.657331816,17.0368721 5.52948118,21.7601912 11.5398312,21.7599335 C14.7250702,21.7599335 17.5907516,20.4330404 19.5810222,18.3185404" id="Path" stroke="#6C6B6B" stroke-width="1.92" stroke-linecap="round" transform="translate(10.195609, 11.209638) rotate(-1.000000) translate(-10.195609, -11.209638) "></path>
                    </g>
                </g>
            </g>
        </g>
    </g>
</svg>