<?xml version="1.0" encoding="UTF-8"?>
<svg width="14px" height="22px" viewBox="0 0 14 22" version="1.1" xmlns="http://www.w3.org/2000/svg" xmlns:xlink="http://www.w3.org/1999/xlink">
    <!-- Generator: Sketch 61 (89581) - https://sketch.com -->
    <title>controlCenter_LED</title>
    <desc>Created with Sketch.</desc>
    <g id="Symbols" stroke="none" stroke-width="1" fill="none" fill-rule="evenodd">
        <g id="V1_UI_ControlCenter_Active-Copy" transform="translate(-720.000000, -605.000000)" fill="#6C6B6B">
            <g id="controlCenter_LED" transform="translate(720.000000, 605.000000)">
                <path d="M7.07142857,0 C9.81970268,0 12.047619,2.46243388 12.047619,5.5 C12.047619,5.58775191 12.0457597,5.67502383 12.0420822,5.76177027 L12.047619,5.76190476 L12.047,10.476 L12.6190476,10.4761905 C13.1713324,10.4761905 13.6190476,10.9239057 13.6190476,11.4761905 L13.6190476,12.0952381 C13.6190476,12.6475228 13.1713324,13.0952381 12.6190476,13.0952381 L9.428,13.095 L9.42857143,17.8095238 C9.42857143,18.3881078 8.9595364,18.8571429 8.38095238,18.8571429 C7.80236836,18.8571429 7.33333333,18.3881078 7.33333333,17.8095238 L7.333,13.095 L5.761,13.095 L5.76190476,20.952381 C5.76190476,21.530965 5.29286974,22 4.71428571,22 C4.13570169,22 3.66666667,21.530965 3.66666667,20.952381 L3.666,13.095 L1,13.0952381 C0.44771525,13.0952381 4.27001995e-14,12.6475228 4.26325641e-14,12.0952381 L4.26325641e-14,11.4761905 C4.25649288e-14,10.9239057 0.44771525,10.4761905 1,10.4761905 L2.095,10.476 L2.0952381,5.76190476 C2.09709744,5.67502383 2.0952381,5.58775191 2.0952381,5.5 C2.0952381,2.46243388 4.32315446,0 7.07142857,0 Z M7.09157509,2.0952381 C6.64651046,2.0952381 6.28571429,2.45603427 6.28571429,2.9010989 C6.28571429,3.34616353 6.64651046,3.70695971 7.09157509,3.70695971 C8.07071729,3.70695971 8.86446886,4.50071129 8.86446886,5.47985348 C8.86446886,5.92491811 9.22526504,6.28571429 9.67032967,6.28571429 C10.1153943,6.28571429 10.4761905,5.92491811 10.4761905,5.47985348 C10.4761905,3.61058202 8.96084655,2.0952381 7.09157509,2.0952381 Z" id="LED-Copy-6"></path>
            </g>
        </g>
    </g>
</svg>