<?xml version="1.0" encoding="UTF-8"?>
<svg width="32px" height="25px" viewBox="0 0 32 25" version="1.1" xmlns="http://www.w3.org/2000/svg" xmlns:xlink="http://www.w3.org/1999/xlink">
    <!-- Generator: Sketch 61 (89581) - https://sketch.com -->
    <title>logic</title>
    <desc>Created with Sketch.</desc>
    <g id="Icons" stroke="none" stroke-width="1" fill="none" fill-rule="evenodd">
        <g id="Block-Icons" transform="translate(-48.000000, -393.000000)" fill="#FFFFFF">
            <path d="M56.097705,395.823293 C58.0565843,395.823293 59.5566781,396.819457 60.6184899,398.538953 C61.3176436,399.67116 61.7653641,400.894047 62.4316114,403.174805 C62.4878408,403.367294 62.6783024,404.024277 62.7018203,404.105089 C62.8079306,404.469703 62.8914014,404.752273 62.9738884,405.02448 C64.3739547,409.644701 65.7464942,411.374212 68.6848893,411.374212 L68.6848893,411.374212 L72.5063704,411.374119 C72.4561397,411.272971 72.4022339,411.173974 72.3448278,411.077302 L72.3445693,409.547993 C72.3445693,408.995708 72.7922845,408.547993 73.3445693,408.547993 C73.5400961,408.547993 73.7313333,408.605314 73.8946234,408.712864 L79.5538281,412.440275 C80.0150571,412.744061 80.1426895,413.364229 79.838903,413.825458 C79.7642171,413.938851 79.6672212,414.035847 79.5538281,414.110533 L73.8946234,417.837944 C73.4333944,418.14173 72.8132268,418.014098 72.5094403,417.552869 C72.40189,417.389579 72.3445693,417.198341 72.3445693,417.002815 L72.3448278,415.688443 C72.4022339,415.591771 72.4561397,415.492774 72.5063704,415.391627 L68.6848893,415.391533 C63.4254333,415.391533 60.9910858,412.324058 59.1323857,406.190345 C59.04491,405.901675 58.9575784,405.606035 58.8476877,405.228431 C58.8231166,405.144 58.633454,404.489774 58.578615,404.302044 C57.5666325,400.837734 56.9508971,399.840613 56.097705,399.840613 L56.097705,399.840613 L50.007132,399.840613 C48.8986236,399.840613 48,398.941306 48,397.831953 C48,396.7226 48.8986236,395.823293 50.007132,395.823293 L50.007132,395.823293 Z M59.7842179,413.742899 L59.794513,413.75563 C58.7733939,414.809961 57.4675877,415.391533 55.8721283,415.391533 L50.007132,415.391533 C48.8986236,415.391533 48,414.492225 48,413.382873 C48,412.27352 48.8986236,411.374212 50.007132,411.374212 L55.8721283,411.374212 C56.5820152,411.374212 57.0925269,410.996723 57.6033975,409.861299 C58.2046878,411.361548 58.8815804,412.591629 59.7842179,413.742899 Z M73.3445693,392.997073 C73.5400961,392.997073 73.7313333,393.054394 73.8946234,393.161944 L79.5538281,396.889355 C80.0150571,397.193142 80.1426895,397.813309 79.838903,398.274538 C79.7642171,398.387931 79.6672212,398.484927 79.5538281,398.559613 L73.8946234,402.287024 C73.4333944,402.59081 72.8132268,402.463178 72.5094403,402.001949 C72.40189,401.838659 72.3445693,401.647422 72.3445693,401.451895 L72.344,399.84 L67.9931205,399.840613 C66.4072011,399.840613 65.3590836,400.390935 64.5143322,401.795393 C63.9565902,399.919826 63.5131987,398.731284 62.8656013,397.591769 C64.2256208,396.43781 65.9326893,395.823293 67.9931205,395.823293 L72.344,395.823 L72.3445693,393.997073 C72.3445693,393.444788 72.7922845,392.997073 73.3445693,392.997073 Z" id="logic"></path>
        </g>
    </g>
</svg>