<?xml version="1.0" encoding="UTF-8"?>
<svg width="26px" height="36px" viewBox="0 0 26 36" version="1.1" xmlns="http://www.w3.org/2000/svg" xmlns:xlink="http://www.w3.org/1999/xlink">
    <!-- Generator: Sketch 61 (89581) - https://sketch.com -->
    <title>Bluebird Icon</title>
    <desc>Created with Sketch.</desc>
    <g id="Icons" stroke="none" stroke-width="1" fill="none" fill-rule="evenodd">
        <g id="Block-Icons" transform="translate(-52.000000, -218.000000)" fill="#FFFFFF">
            <path d="M66.2197029,218.391692 C66.3567611,218.49716 66.4795608,218.61996 66.5850288,218.757018 C71.6997775,225.403755 75.0916219,230.924571 76.760562,235.319466 C77.5555532,237.013667 78,238.907486 78,240.905862 C78,248.137555 72.1797017,254 65,254 C57.8202983,254 52,248.137555 52,240.905862 C52,238.907486 52.4444468,237.013667 53.2392092,235.31922 C54.8656688,231.03704 58.1277473,225.685588 63.0256745,219.265105 L63.4149957,218.757018 C64.0886122,217.881638 65.3443224,217.718076 66.2197029,218.391692 Z M55.78654,242.896479 C54.8106241,242.896479 54.019488,243.676736 54.019488,244.639232 C54.019488,245.601728 54.8106241,246.381986 55.78654,246.381986 C56.7624558,246.381986 57.553592,245.601728 57.553592,244.639232 C57.553592,243.676736 56.7624558,242.896479 55.78654,242.896479 Z M73.9619319,242.896479 C72.986016,242.896479 72.1948799,243.676736 72.1948799,244.639232 C72.1948799,245.601728 72.986016,246.381986 73.9619319,246.381986 C74.9378477,246.381986 75.7289839,245.601728 75.7289839,244.639232 C75.7289839,243.676736 74.9378477,242.896479 73.9619319,242.896479 Z M57.806028,231.942028 C56.8301121,231.942028 56.038976,232.722285 56.038976,233.684782 C56.038976,234.647278 56.8301121,235.427535 57.806028,235.427535 C58.7819438,235.427535 59.57308,234.647278 59.57308,233.684782 C59.57308,232.722285 58.7819438,231.942028 57.806028,231.942028 Z M71.9424439,231.942028 C70.966528,231.942028 70.1753919,232.722285 70.1753919,233.684782 C70.1753919,234.647278 70.966528,235.427535 71.9424439,235.427535 C72.9183598,235.427535 73.7094959,234.647278 73.7094959,233.684782 C73.7094959,232.722285 72.9183598,231.942028 71.9424439,231.942028 Z" id="Bluebird-Icon"></path>
        </g>
    </g>
</svg>