<?xml version="1.0" encoding="UTF-8"?>
<svg width="151px" height="179px" viewBox="0 0 151 179" version="1.1" xmlns="http://www.w3.org/2000/svg" xmlns:xlink="http://www.w3.org/1999/xlink">
    <!-- Generator: Sketch 61 (89581) - https://sketch.com -->
    <title>noun_papers_108562</title>
    <desc>Created with Sketch.</desc>
    <g id="UI/Stylized-Wireframe" stroke="none" stroke-width="1" fill="none" fill-rule="evenodd">
        <g id="0605_Invention-Page---Tab-Materials" transform="translate(-468.000000, -814.000000)" fill="#000000" fill-rule="nonzero">
            <g id="noun_papers_108562" transform="translate(468.000000, 814.000000)">
                <g id="Group">
                    <path d="M137.688158,12.3311111 L137.688158,0 L0.794736842,0 L0.794736842,166.668889 L13.1131579,166.668889 L13.1131579,179 L82.8513158,179 L92.5868421,166.668889 L137.886842,166.668889 L137.886842,108.593333 L150.205263,92.6822222 L150.205263,12.3311111 L137.688158,12.3311111 Z M13.3118421,161.696667 L5.76184211,161.696667 L5.76184211,4.97222222 L132.919737,4.97222222 L132.919737,12.53 L13.3118421,12.53 L13.3118421,161.696667 Z M132.919737,161.696667 L96.3618421,161.696667 L132.919737,114.758889 L132.919737,161.696667 Z M84.0434211,169.652222 L89.4078947,116.151111 L141.264474,96.0633333 L84.0434211,169.652222 Z M145.238158,91.0911111 L145.238158,91.0911111 L86.4276316,113.963333 L83.05,147.973333 C82.8513158,147.774444 82.6526316,147.575556 82.2552632,147.575556 C81.6592105,147.575556 81.0631579,148.172222 81.0631579,148.768889 C81.0631579,149.365556 81.6592105,149.962222 82.2552632,149.962222 C82.4539474,149.962222 82.6526316,149.962222 82.8513158,149.763333 L80.4671053,174.027778 L18.0802632,174.027778 L18.0802632,17.3033333 L145.238158,17.3033333 L145.238158,91.0911111 Z" id="Shape"></path>
                    <ellipse id="Oval" cx="24.8355263" cy="91.4888889" rx="1.19210526" ry="1.19333333"></ellipse>
                    <ellipse id="Oval" cx="34.3723684" cy="91.4888889" rx="1.19210526" ry="1.19333333"></ellipse>
                    <ellipse id="Oval" cx="43.9092105" cy="91.4888889" rx="1.19210526" ry="1.19333333"></ellipse>
                    <ellipse id="Oval" cx="53.4460526" cy="91.4888889" rx="1.19210526" ry="1.19333333"></ellipse>
                    <ellipse id="Oval" cx="62.9828947" cy="91.4888889" rx="1.19210526" ry="1.19333333"></ellipse>
                    <ellipse id="Oval" cx="72.5197368" cy="91.4888889" rx="1.19210526" ry="1.19333333"></ellipse>
                    <ellipse id="Oval" cx="91.5934211" cy="91.4888889" rx="1.19210526" ry="1.19333333"></ellipse>
                    <ellipse id="Oval" cx="101.328947" cy="91.4888889" rx="1.19210526" ry="1.19333333"></ellipse>
                    <ellipse id="Oval" cx="110.865789" cy="91.4888889" rx="1.19210526" ry="1.19333333"></ellipse>
                    <ellipse id="Oval" cx="120.402632" cy="91.4888889" rx="1.19210526" ry="1.19333333"></ellipse>
                    <ellipse id="Oval" cx="129.939474" cy="91.4888889" rx="1.19210526" ry="1.19333333"></ellipse>
                    <ellipse id="Oval" cx="82.0565789" cy="24.2644444" rx="1.19210526" ry="1.19333333"></ellipse>
                    <ellipse id="Oval" cx="82.0565789" cy="33.8111111" rx="1.19210526" ry="1.19333333"></ellipse>
                    <ellipse id="Oval" cx="82.0565789" cy="43.3577778" rx="1.19210526" ry="1.19333333"></ellipse>
                    <ellipse id="Oval" cx="82.0565789" cy="52.9044444" rx="1.19210526" ry="1.19333333"></ellipse>
                    <ellipse id="Oval" cx="82.0565789" cy="62.4511111" rx="1.19210526" ry="1.19333333"></ellipse>
                    <ellipse id="Oval" cx="82.0565789" cy="72.1966667" rx="1.19210526" ry="1.19333333"></ellipse>
                    <ellipse id="Oval" cx="82.0565789" cy="81.7433333" rx="1.19210526" ry="1.19333333"></ellipse>
                    <ellipse id="Oval" cx="82.0565789" cy="91.4888889" rx="1.19210526" ry="1.19333333"></ellipse>
                    <ellipse id="Oval" cx="82.0565789" cy="101.035556" rx="1.19210526" ry="1.19333333"></ellipse>
                    <ellipse id="Oval" cx="82.0565789" cy="110.582222" rx="1.19210526" ry="1.19333333"></ellipse>
                    <ellipse id="Oval" cx="82.0565789" cy="120.128889" rx="1.19210526" ry="1.19333333"></ellipse>
                    <ellipse id="Oval" cx="82.0565789" cy="129.675556" rx="1.19210526" ry="1.19333333"></ellipse>
                    <ellipse id="Oval" cx="82.0565789" cy="139.222222" rx="1.19210526" ry="1.19333333"></ellipse>
                </g>
            </g>
        </g>
    </g>
</svg>