<?xml version="1.0" encoding="UTF-8"?>
<svg width="26px" height="37px" viewBox="0 0 26 37" version="1.1" xmlns="http://www.w3.org/2000/svg" xmlns:xlink="http://www.w3.org/1999/xlink">
    <!-- Generator: Sketch 61 (89581) - https://sketch.com -->
    <title>text on phone copy</title>
    <desc>Created with Sketch.</desc>
    <g id="Icons" stroke="none" stroke-width="1" fill="none" fill-rule="evenodd">
        <g id="Block-Icons" transform="translate(-53.000000, -45.000000)" fill="#FFFFFF">
            <path d="M77,45 C78.1045695,45 79,45.8954305 79,47 L79,80 C79,81.1045695 78.1045695,82 77,82 L55,82 C53.8954305,82 53,81.1045695 53,80 L53,47 C53,45.8954305 53.8954305,45 55,45 L77,45 Z M66,76.8611111 C65.1384358,76.8611111 64.44,77.5513388 64.44,78.4027778 C64.44,79.2542168 65.1384358,79.9444444 66,79.9444444 C66.8615642,79.9444444 67.56,79.2542168 67.56,78.4027778 C67.56,77.5513388 66.8615642,76.8611111 66,76.8611111 Z M73.88,49.1111111 L58.12,49.1111111 C57.0154305,49.1111111 56.12,50.0065416 56.12,51.1111111 L56.12,51.1111111 L56.12,73.8333333 C56.12,74.9379028 57.0154305,75.8333333 58.12,75.8333333 L58.12,75.8333333 L73.88,75.8333333 C74.9845695,75.8333333 75.88,74.9379028 75.88,73.8333333 L75.88,73.8333333 L75.88,51.1111111 C75.88,50.0065416 74.9845695,49.1111111 73.88,49.1111111 L73.88,49.1111111 Z" id="text-on-phone-copy"></path>
        </g>
    </g>
</svg>