<?xml version="1.0" encoding="UTF-8"?>
<svg width="29px" height="32px" viewBox="0 0 29 32" version="1.1" xmlns="http://www.w3.org/2000/svg" xmlns:xlink="http://www.w3.org/1999/xlink">
    <!-- Generator: Sketch 61 (89581) - https://sketch.com -->
    <title>effects copy</title>
    <desc>Created with Sketch.</desc>
    <g id="Icons" stroke="none" stroke-width="1" fill="none" fill-rule="evenodd" stroke-linecap="round" stroke-linejoin="round">
        <g id="Block-Icons" transform="translate(-49.000000, -304.000000)" fill="#FFFFFF" stroke="#FFFFFF">
            <path d="M62,326 C58.1481481,329.333333 55.9814815,332.666667 55.5,336 C55.0185185,332.666667 52.8518519,329.333333 49,326 L62,326 Z M55.5,316 C55.9814815,319.333333 58.1481481,322.666667 62,326 L49,326 C52.8518519,322.666667 55.0185185,319.333333 55.5,316 Z M77,312 C74.037037,314.666667 72.3703704,317.333333 72,320 C71.6296296,317.333333 69.962963,314.666667 67,312 L77,312 Z M72,304 C72.3703704,306.666667 74.037037,309.333333 77,312 L67,312 C69.962963,309.333333 71.6296296,306.666667 72,304 Z" id="effects-copy"></path>
        </g>
    </g>
</svg>