<?xml version="1.0" encoding="UTF-8"?>
<svg width="32px" height="32px" viewBox="0 0 32 32" version="1.1" xmlns="http://www.w3.org/2000/svg" xmlns:xlink="http://www.w3.org/1999/xlink">
    <!-- Generator: Sketch 61 (89581) - https://sketch.com -->
    <title>Web</title>
    <desc>Created with Sketch.</desc>
    <g id="Icons" stroke="none" stroke-width="1" fill="none" fill-rule="evenodd">
        <g id="Artboard" transform="translate(-47.000000, -133.000000)" fill="#FFFFFF" fill-rule="nonzero">
            <path d="M63,133 C71.836556,133 79,140.163444 79,149 C79,157.836556 71.836556,165 63,165 C54.163444,165 47,157.836556 47,149 C47,140.163444 54.163444,133 63,133 Z M56.6460178,155.081174 L56.5285366,155.129217 C57.5437432,157.961868 59.2949112,160.285608 61.656626,161.833046 C61.8447139,161.853603 62.0345114,161.869057 62.2254258,161.88036 L62.2251963,153.921066 C60.2557493,154.008037 58.3607338,154.410799 56.6460178,155.081174 Z M63.7746919,153.918186 L63.7745742,161.88036 C63.9654886,161.869057 64.1552861,161.853603 64.3438779,161.834086 C66.7081531,160.283601 68.4608,157.955836 69.4754114,155.118188 C67.7304328,154.415942 65.7963325,154.000055 63.7746919,153.918186 Z M70.8868574,155.767716 C70.1500979,157.775966 69.0764139,159.552694 67.697955,161.022264 C69.7921111,160.202361 71.6202201,158.851683 73.0160025,157.135331 C72.3596133,156.623961 71.6468523,156.166397 70.8868574,155.767716 Z M55.1163504,155.776197 L54.8923253,155.894377 C54.2133557,156.263075 53.5749656,156.678427 52.9856636,157.13656 C54.3804837,158.852203 56.2082921,160.202519 58.3024077,161.021447 C56.9238172,159.55294 55.8502622,157.776562 55.1163504,155.776197 Z M53.9812225,149.774826 L50.1196396,149.774574 C50.252025,152.010552 50.9537984,154.093332 52.0819981,155.879951 C52.8659457,155.273638 53.724477,154.738376 54.6416306,154.279144 C54.2602399,152.862197 54.0363825,151.352061 53.9812225,149.774826 Z M75.8803604,149.774574 L72.0187775,149.774826 C71.9637342,151.348725 71.7407066,152.855807 71.3603193,154.270836 C72.2749295,154.730723 73.1327041,155.268569 73.9191798,155.87727 C75.0467273,154.091771 75.7480246,152.009714 75.8803604,149.774574 Z M62.225,149.774 L55.5305912,149.774762 C55.5814531,151.128949 55.7659394,152.424482 56.0756196,153.643387 C57.9717717,152.899548 60.0607902,152.459352 62.2257419,152.371268 L62.225,149.774 Z M70.4694088,149.774762 L63.774,149.774 L63.7745698,152.368629 C65.9460979,152.449676 68.0319981,152.886153 69.9267626,153.630249 C70.235264,152.416021 70.418713,151.124527 70.4694088,149.774762 Z M53.0715949,140.75826 L53.0090297,140.833984 C51.3416067,142.871621 50.285226,145.428686 50.1196396,148.225426 L53.9812225,148.225174 C54.0602558,145.965309 54.4856114,143.843193 55.2258383,141.933538 C54.4689026,141.591433 53.74829,141.198112 53.0715949,140.75826 Z M56.6632584,142.511871 L56.5960463,142.686076 C55.9695278,144.367323 55.6054254,146.232794 55.5305912,148.225238 L62.225,148.225 L62.2257419,143.564216 C60.2822319,143.485141 58.3999158,143.122302 56.6632584,142.511871 Z M69.3419456,142.522502 L68.97722,142.647073 C67.3438285,143.18324 65.5890928,143.499133 63.7745698,143.566855 L63.774,148.225 L70.4694088,148.225238 C70.392139,146.167945 70.0064645,144.246024 69.3419456,142.522502 Z M72.930306,140.760404 L72.6790334,140.922797 C72.0759822,141.300809 71.4409744,141.641941 70.7789714,141.943946 C71.5158656,143.850568 71.9398815,145.969235 72.0187775,148.225174 L75.8803604,148.225426 C75.7127747,145.394918 74.6327539,142.809908 72.930306,140.760404 Z M63.7745742,136.11964 L63.7746919,142.017297 C65.5049588,141.947228 67.1711009,141.632485 68.7093131,141.103805 C67.6685749,139.067414 66.1932707,137.379039 64.343374,136.166954 C64.1552861,136.146397 63.9654886,136.130943 63.7745742,136.11964 Z M61.7751173,136.154155 L61.656626,136.166954 C59.8100779,137.376845 58.3367674,139.061304 57.2966386,141.092524 C58.8352704,141.620369 60.5017335,141.938309 62.2251963,142.014418 L62.2254258,136.11964 C62.0746114,136.128569 61.9244939,136.140088 61.7751173,136.154155 Z M67.6975923,136.978553 L67.8135616,137.102483 C68.7379025,138.112042 69.5212671,139.262144 70.1527014,140.52677 C70.745506,140.256596 71.3138474,139.950962 71.8529402,139.61325 C70.6596701,138.487064 69.2519944,137.58642 67.6975923,136.978553 Z M58.302045,136.977736 L58.044697,137.082569 C56.5939852,137.686469 55.2771893,138.547542 54.1512333,139.608862 C54.6892168,139.94482 55.2579713,140.248627 55.8520877,140.518941 C56.5086354,139.204326 57.3294831,138.014581 58.302045,136.977736 Z" id="Web"></path>
        </g>
    </g>
</svg>