<?xml version="1.0" encoding="UTF-8"?>
<svg width="36px" height="33px" viewBox="0 0 36 33" version="1.1" xmlns="http://www.w3.org/2000/svg" xmlns:xlink="http://www.w3.org/1999/xlink">
    <!-- Generator: Sketch 61 (89581) - https://sketch.com -->
    <title>math</title>
    <desc>Created with Sketch.</desc>
    <g id="Icons" stroke="none" stroke-width="1" fill="none" fill-rule="evenodd">
        <g id="Block-Icons" transform="translate(-47.000000, -472.000000)" fill="#FFFFFF">
            <path d="M51.3775573,492.766798 L54.955,496.344 L58.5300208,492.769073 C59.1157375,492.183287 60.0654285,492.18323 60.6512149,492.768947 L60.6513411,492.769073 C61.237148,493.35495 61.237148,494.304769 60.6513411,494.890646 L57.076,498.465 L61.0464944,502.436886 C61.6323013,503.022762 61.6323013,503.972582 61.0464944,504.558459 C60.497385,505.107634 59.6283763,505.142007 59.0392221,504.661542 L58.925174,504.558459 L58.925174,504.558459 L54.954,500.587 L50.9825303,504.560608 C50.4334209,505.109783 49.5644123,505.144156 48.975258,504.663691 L48.86121,504.560608 L48.86121,504.560608 C48.2754031,503.974731 48.2754031,503.024912 48.86121,502.439035 L52.834,498.466 L49.2563632,494.888497 C48.6705564,494.30262 48.6705564,493.352801 49.2563632,492.766924 C49.8420799,492.181138 50.7917709,492.181081 51.3775573,492.766798 Z M74.9722222,501.474097 C75.9387205,501.474097 76.7222222,502.257692 76.7222222,503.224305 C76.7222222,504.190918 75.9387205,504.974513 74.9722222,504.974513 C74.0057239,504.974513 73.2222222,504.190918 73.2222222,503.224305 C73.2222222,502.257692 74.0057239,501.474097 74.9722222,501.474097 Z M81.4998214,496.179349 C82.3283472,496.179349 83,496.851002 83,497.679527 C83,498.508053 82.3283472,499.179706 81.4998214,499.179706 L68.5001786,499.179706 C67.6716528,499.179706 67,498.508053 67,497.679527 C67,496.851002 67.6716528,496.179349 68.5001786,496.179349 L81.4998214,496.179349 Z M74.75,490.002143 C75.7164983,490.002143 76.5,490.785738 76.5,491.752351 C76.5,492.718965 75.7164983,493.50256 74.75,493.50256 C73.7835017,493.50256 73,492.718965 73,491.752351 C73,490.785738 73.7835017,490.002143 74.75,490.002143 Z M54.5,472 C55.3284271,472 56,472.671573 56,473.5 L55.999,478 L60.4998214,478.000714 C61.3283472,478.000714 62,478.672367 62,479.500893 C62,480.329419 61.3283472,481.001071 60.4998214,481.001071 L55.999,481.001 L56,485.501786 C56,486.330213 55.3284271,487.001786 54.5,487.001786 C53.6715729,487.001786 53,486.330213 53,485.501786 L52.999,481.001 L48.5001786,481.001071 C47.6716528,481.001071 47,480.329419 47,479.500893 C47,478.672367 47.6716528,478.000714 48.5001786,478.000714 L52.999,478 L53,473.5 C53,472.671573 53.6715729,472 54.5,472 Z M81.4998214,478.000714 C82.3283472,478.000714 83,478.672367 83,479.500893 C83,480.329419 82.3283472,481.001071 81.4998214,481.001071 L68.5001786,481.001071 C67.6716528,481.001071 67,480.329419 67,479.500893 C67,478.672367 67.6716528,478.000714 68.5001786,478.000714 L81.4998214,478.000714 Z" id="math"></path>
        </g>
    </g>
</svg>