<?xml version="1.0" encoding="UTF-8"?>
<svg width="158px" height="187px" viewBox="0 0 158 187" version="1.1" xmlns="http://www.w3.org/2000/svg" xmlns:xlink="http://www.w3.org/1999/xlink">
    <!-- Generator: Sketch 61 (89581) - https://sketch.com -->
    <title>Group 7</title>
    <desc>Created with Sketch.</desc>
    <g id="UI/Stylized-Wireframe" stroke="none" stroke-width="1" fill="none" fill-rule="evenodd">
        <g id="0605_Invention-Page---Tab-Materials" transform="translate(-112.000000, -814.000000)" stroke="#010202">
            <g id="Group-7" transform="translate(112.834135, 814.000000)">
                <path d="M0.165865385,187 L93.8064465,52.5188928 C93.8064465,52.5188928 102.277559,35.7078931 87.1173375,46.7673262 C71.9557276,57.8267592 0.165865385,187 0.165865385,187 Z" id="Stroke-1"></path>
                <path d="M141.38093,0 C143.250699,2.93348027 146.588981,5.36223139 146.009849,9.25703501 C144.841933,17.1360357 131.270939,20.4202133 124.912897,21.2536353 C109.19222,23.3165609 92.7076405,17.5293668 77.3137596,23.0071221 C68.7495,26.0561262 65.6304604,33.1209589 66.7294324,42.049301 C67.9442307,51.9004586 75.1406356,58.3395372 85.2561417,56.5571694 C90.9785177,55.5449606 96.3382467,52.7366312 101.787603,50.8277373 C109.052952,48.2875882 116.623035,46.5286003 124.325491,46.100887 C136.543798,45.4214968 148.700055,48.5200111 154.079089,60.4918563 C159.849726,73.3370066 152.920825,86.4324586 142.248249,94.2193153 C127.626544,104.88189 113.123423,98.6326009 96.9008321,97.1060359 C80.0991089,95.5285854 66.1613314,103.805043 63.6186661,121.126742 C62.1005128,131.482629 64.1040338,139.710952 74.1767945,144.16412 C89.0990964,150.758606 108.333174,150.834247 122.752183,142.995129 C127.858197,140.217056 133.115888,136.770595 137.063638,132.454954" id="Stroke-3"></path>
                <path d="M89.1647849,50 C89.1647849,50 89.4626801,54.3324103 80.1658654,63 C80.1658654,63 83.515808,51.0896794 89.1647849,50 Z" id="Stroke-5"></path>
            </g>
        </g>
    </g>
</svg>