<?xml version="1.0" encoding="UTF-8"?>
<svg width="19px" height="19px" viewBox="0 0 19 19" version="1.1" xmlns="http://www.w3.org/2000/svg" xmlns:xlink="http://www.w3.org/1999/xlink">
    <!-- Generator: Sketch 61 (89581) - https://sketch.com -->
    <title>Pencil Icon</title>
    <desc>Created with Sketch.</desc>
    <g id="UI/Stylized-Wireframe" stroke="none" stroke-width="1" fill="none" fill-rule="evenodd">
        <g id="0303_My-Profile---Teacher---Bluebird-Activity---Expanded-Accordion-Not-Connected" transform="translate(-511.000000, -696.000000)" fill="#6C6B6B" fill-rule="nonzero">
            <g id="Pencil-Icon" transform="translate(511.000000, 696.000000)">
                <path d="M17.0821129,0.836771097 C15.9637783,-0.278923699 14.150679,-0.278923699 13.0323443,0.836771097 L1.67946991,12.1628469 C1.60166624,12.2404669 1.54548847,12.336686 1.51615677,12.4423286 L0.0232209992,17.8194371 C-0.0381768093,18.0398978 0.0242152318,18.2759817 0.186285582,18.4379174 C0.348604427,18.5996051 0.585246931,18.66185 0.806229253,18.600845 L6.19606059,17.1111854 C6.30195311,17.0819229 6.39839984,17.0258778 6.47620357,16.9482577 L17.8288294,5.62193396 C18.945424,4.50549518 18.945424,2.69816377 17.8288294,1.58172493 C16.7119853,0.465036743 18.2001979,1.95221682 17.0821129,0.836771097 Z M3.06601604,12.5949488 L12.2754074,3.38549742 L15.2455032,6.3555332 L6.03586548,15.5649846 M2.46744971,13.7737723 L4.86146648,16.162386 L1.54996284,17.0777071 M16.9289913,4.72421995 L16.2541128,5.39750547 L13.2573039,2.40777063 L13.932431,1.73448511 C14.5536176,1.11476484 15.5608397,1.11476484 16.1820263,1.73448511 L16.9289913,2.47943895 C17.5491836,3.09990319 17.5491836,4.10400374 16.9289913,4.72421995" id="Shape"></path>
            </g>
        </g>
    </g>
</svg>