<?xml version="1.0" encoding="UTF-8"?>
<svg width="35px" height="35px" viewBox="0 0 35 35" version="1.1" xmlns="http://www.w3.org/2000/svg" xmlns:xlink="http://www.w3.org/1999/xlink">
    <!-- Generator: Sketch 60 (88103) - https://sketch.com -->
    <title>program_new</title>
    <desc>Created with Sketch.</desc>
    <g id="Symbols" stroke="none" stroke-width="1" fill="none" fill-rule="evenodd">
        <g id="program_new" fill="#6C6B6B">
            <g id="ic_add_circle_outline_24px">
                <path d="M17.5607639,10.2083333 C16.7486368,10.2083333 16.0902778,10.8666924 16.0902778,11.6788194 L16.0902778,16.0902778 L16.0902778,16.0902778 L11.6788194,16.0902778 C10.8666924,16.0902778 10.2083333,16.7486368 10.2083333,17.5607639 C10.2083333,18.3728909 10.8666924,19.03125 11.6788194,19.03125 L16.0902778,19.03125 L16.0902778,19.03125 L16.0902778,23.4427083 C16.0902778,24.2548354 16.7486368,24.9131944 17.5607639,24.9131944 C18.3728909,24.9131944 19.03125,24.2548354 19.03125,23.4427083 L19.03125,19.03125 L19.03125,19.03125 L23.4427083,19.03125 C24.2548354,19.03125 24.9131944,18.3728909 24.9131944,17.5607639 C24.9131944,16.7486368 24.2548354,16.0902778 23.4427083,16.0902778 L19.03125,16.0902778 L19.03125,16.0902778 L19.03125,11.6788194 C19.03125,10.8666924 18.3728909,10.2083333 17.5607639,10.2083333 Z M17.5,0 C7.84,0 0,7.84 0,17.5 C0,27.16 7.84,35 17.5,35 C27.16,35 35,27.16 35,17.5 C35,7.84 27.16,0 17.5,0 Z M17.5,32.0833333 C9.4609375,32.0833333 2.91666667,25.5390625 2.91666667,17.5 C2.91666667,9.4609375 9.4609375,2.91666667 17.5,2.91666667 C25.5390625,2.91666667 32.0833333,9.4609375 32.0833333,17.5 C32.0833333,25.5390625 25.5390625,32.0833333 17.5,32.0833333 Z" id="Shape" fill-rule="nonzero"></path>
            </g>
        </g>
    </g>
</svg>