<?xml version="1.0" encoding="UTF-8"?>
<svg width="35px" height="35px" viewBox="0 0 35 35" version="1.1" xmlns="http://www.w3.org/2000/svg" xmlns:xlink="http://www.w3.org/1999/xlink">
    <!-- Generator: Sketch 60 (88103) - https://sketch.com -->
    <title>program_settings</title>
    <desc>Created with Sketch.</desc>
    <g id="Symbols" stroke="none" stroke-width="1" fill="none" fill-rule="evenodd">
        <g id="program_settings" fill="#6C6B6B" fill-rule="nonzero">
            <path d="M28.21875,9.84375 L31.5,6.5625 L28.4375,3.5 L25.15625,6.78125 C23.625,5.6875 21.65625,4.8125 19.6875,4.59375 L19.6875,0 L15.3125,0 L15.3125,4.59375 C13.34375,5.03125 11.375,5.6875 9.84375,6.78125 L6.78125,3.5 L3.5,6.78125 L6.78125,10.0625 C5.6875,11.375 4.8125,13.34375 4.59375,15.3125 L0,15.3125 L0,19.6875 L4.59375,19.6875 C5.03125,21.65625 5.6875,23.625 6.78125,25.15625 L3.5,28.4375 L6.5625,31.5 L9.84375,28.21875 C11.375,29.3125 13.34375,30.1875 15.3125,30.40625 L15.3125,35 L19.6875,35 L19.6875,30.40625 C21.65625,29.96875 23.625,29.3125 25.15625,28.21875 L28.4375,31.5 L31.5,28.4375 L28.21875,25.15625 C29.3125,23.625 30.1875,21.65625 30.40625,19.6875 L35,19.6875 L35,15.3125 L30.40625,15.3125 C30.1875,13.34375 29.3125,11.375 28.21875,9.84375 Z M17.5,24.0625 C13.78125,24.0625 10.9375,21.21875 10.9375,17.5 C10.9375,13.78125 13.78125,10.9375 17.5,10.9375 C21.21875,10.9375 24.0625,13.78125 24.0625,17.5 C24.0625,21.21875 21.21875,24.0625 17.5,24.0625 Z" id="Shape"></path>
        </g>
    </g>
</svg>