<?xml version="1.0" encoding="UTF-8"?>
<svg width="24px" height="20px" viewBox="0 0 24 20" version="1.1" xmlns="http://www.w3.org/2000/svg" xmlns:xlink="http://www.w3.org/1999/xlink">
    <!-- Generator: Sketch 60 (88103) - https://sketch.com -->
    <title>program_redo</title>
    <desc>Created with Sketch.</desc>
    <g id="Symbols" stroke="none" stroke-width="1" fill="none" fill-rule="evenodd">
        <g id="UI-V1_Program-Header" transform="translate(-42.000000, -9.000000)" stroke="#6C6B6B">
            <g id="Group-4" transform="translate(0.000000, 1.000000)">
                <g id="program_redo" transform="translate(39.000000, 3.000000)">
                    <g id="Group-3-Copy" transform="translate(15.000000, 14.500000) scale(-1, 1) rotate(45.000000) translate(-15.000000, -14.500000) translate(3.000000, 6.000000)">
                        <path d="M23.5,9.5 C23.5,4.25329488 19.2467051,0 14,0 C8.75329488,0 4.5,4.25329488 4.5,9.5" id="Oval" stroke-width="3" stroke-linecap="round"></path>
                        <path d="M5.39442719,9.78885438 L8.2763932,15.5527864 C8.52338245,16.0467649 8.3231581,16.6474379 7.82917961,16.8944272 C7.69032417,16.9638549 7.53721111,17 7.38196601,17 L1.61803399,17 C1.06574924,17 0.618033989,16.5522847 0.618033989,16 C0.618033989,15.8447549 0.654179081,15.6916418 0.723606798,15.5527864 L3.60557281,9.78885438 C3.85256206,9.29487588 4.4532351,9.09465154 4.9472136,9.34164079 C5.140741,9.43840449 5.29766349,9.59532698 5.39442719,9.78885438 Z" id="Triangle" fill="#6C6B6B" transform="translate(4.500000, 12.500000) rotate(180.000000) translate(-4.500000, -12.500000) "></path>
                    </g>
                </g>
            </g>
        </g>
    </g>
</svg>