<?xml version="1.0" encoding="UTF-8"?>
<svg width="146px" height="36px" viewBox="0 0 146 36" version="1.1" xmlns="http://www.w3.org/2000/svg" xmlns:xlink="http://www.w3.org/1999/xlink">
    <!-- Generator: Sketch 61 (89581) - https://sketch.com -->
    <title>Fill 11</title>
    <desc>Created with Sketch.</desc>
    <g id="Symbols" stroke="none" stroke-width="1" fill="none" fill-rule="evenodd">
        <g id="Tab-Steps-Copy" transform="translate(-85.000000, -717.000000)" fill="#6C6B6B" stroke="#6C6B6B" stroke-width="2">
            <g id="Tab-Steps">
                <g id="Group-5" transform="translate(84.000000, 716.000000)">
                    <path d="M145.939659,18.6482211 L142.230514,10.0557491 L142.400279,9.66020689 L145.687821,2.00044687 L18.6938794,2.00005458 C9.48497677,2.00002614 2.01794785,9.46204771 2.01179877,18.6709483 C2.00565546,27.8712341 9.45898059,35.3345196 18.6592664,35.3406629 C18.6647785,35.340666 18.6647785,35.340666 18.6702905,35.3406666 L145.662007,35.3414242 L142.208113,27.3424571 L145.939659,18.6482211 Z M146.046632,18.8960284 C146.046856,18.8965469 146.047081,18.8970652 146.047306,18.8975832 L146.046632,18.8960284 Z M147.678025,19.5496396 C147.678026,19.5496383 147.678042,19.54962 147.678063,19.5495963 C147.678064,19.5495945 147.678066,19.5495928 147.678067,19.5495911 Z" id="Fill-11"></path>
                </g>
            </g>
        </g>
    </g>
</svg>