<?xml version="1.0" encoding="UTF-8"?>
<svg width="15px" height="15px" viewBox="0 0 15 15" version="1.1" xmlns="http://www.w3.org/2000/svg" xmlns:xlink="http://www.w3.org/1999/xlink">
    <!-- Generator: Sketch 61 (89581) - https://sketch.com -->
    <title>remove</title>
    <desc>Created with Sketch.</desc>
    <g id="Symbols" stroke="none" stroke-width="1" fill="none" fill-rule="evenodd">
        <g id="V1_UI_Teacher_Edit" transform="translate(-37.000000, -248.000000)" fill="#F04D3A">
            <g id="remove" transform="translate(37.000000, 248.000000)">
                <g id="ic_add_circle_outline_24px-copy">
                    <path d="M6.89583333,6.89583333 L5.00520833,6.89583333 C4.65715388,6.89583333 4.375,7.17798721 4.375,7.52604167 C4.375,7.87409612 4.65715388,8.15625 5.00520833,8.15625 L6.89583333,8.15625 L8.15625,8.15625 L10.046875,8.15625 C10.3949295,8.15625 10.6770833,7.87409612 10.6770833,7.52604167 C10.6770833,7.17798721 10.3949295,6.89583333 10.046875,6.89583333 L8.15625,6.89583333 L6.89583333,6.89583333 Z M7.5,0 C3.36,0 0,3.36 0,7.5 C0,11.64 3.36,15 7.5,15 C11.64,15 15,11.64 15,7.5 C15,3.36 11.64,0 7.5,0 Z M7.5,13.75 C4.0546875,13.75 1.25,10.9453125 1.25,7.5 C1.25,4.0546875 4.0546875,1.25 7.5,1.25 C10.9453125,1.25 13.75,4.0546875 13.75,7.5 C13.75,10.9453125 10.9453125,13.75 7.5,13.75 Z" id="Shape" fill-rule="nonzero"></path>
                </g>
            </g>
        </g>
    </g>
</svg>